<?xml version="1.0" standalone="no"?><!DOCTYPE svg PUBLIC "-//W3C//DTD SVG 1.1//EN" "http://www.w3.org/Graphics/SVG/1.1/DTD/svg11.dtd"><svg t="1699887090038" class="icon" viewBox="0 0 1024 1024" version="1.1" xmlns="http://www.w3.org/2000/svg" p-id="16054" xmlns:xlink="http://www.w3.org/1999/xlink" width="200" height="200"><path d="M536.7 246.2V72.1" fill="#FEC69F" p-id="16055"></path><path d="M536.7 263.7c-9.7 0-17.5-7.8-17.5-17.5V72.1c0-9.7 7.8-17.5 17.5-17.5s17.5 7.8 17.5 17.5v174.1c0 9.6-7.8 17.5-17.5 17.5z" fill="#078FBC" p-id="16056"></path><path d="M220.5 226.1h639.1c29.2 0 52.9 23.7 52.9 52.9s-23.7 52.9-52.9 52.9H220.5c-29.2 0-52.8-23.7-52.8-52.9-0.1-29.2 23.6-52.8 52.8-52.9z" fill="#FFE3C1" p-id="16057"></path><path d="M859.6 349.4H220.5c-38.8 0-70.4-31.6-70.3-70.4 0-38.8 31.5-70.4 70.3-70.4h639.1c38.8 0 70.4 31.6 70.4 70.4s-31.6 70.4-70.4 70.4zM220.5 243.6c-19.5 0-35.3 15.9-35.3 35.4s15.8 35.4 35.3 35.4h639.1c19.5 0 35.4-15.9 35.4-35.4s-15.9-35.4-35.4-35.4H220.5z" fill="#078FBC" p-id="16058"></path><path d="M641.8 468V339.7" fill="#FEC69F" p-id="16059"></path><path d="M624.3 339.7h35V468h-35z" fill="#078FBC" p-id="16060"></path><path d="M470.7 711V347.2" fill="#FEC69F" p-id="16061"></path><path d="M453.2 347.2h35V711h-35z" fill="#078FBC" p-id="16062"></path><path d="M242.4 519.4V345.3" fill="#FEC69F" p-id="16063"></path><path d="M224.9 345.3h35v174.1h-35z" fill="#078FBC" p-id="16064"></path><path d="M838 519.4V345.3" fill="#FEC69F" p-id="16065"></path><path d="M820.4 345.3h35v174.1h-35z" fill="#078FBC" p-id="16066"></path><path d="M835.6 518.2l42.7 77.4 86.8 16.7-60.5 64.5 11 87.7-80-37.6-80.1 37.6 11-87.7-60.5-64.5 86.8-16.7 42.8-77.4" fill="#61FFCB" p-id="16067"></path><path d="M915.6 782c-2.5 0-5.1-0.5-7.4-1.7l-72.6-34.1-72.6 34.1c-5.8 2.7-12.6 2.1-17.7-1.7-5.2-3.8-7.9-10-7.1-16.3l10-79.6-54.8-58.5c-4.4-4.7-5.9-11.3-3.9-17.4 2-6.1 7.1-10.6 13.4-11.8l78.8-15.1 38.8-70.2c3.1-5.6 9-9.1 15.3-9.1 6.4 0 12.3 3.5 15.3 9.1l38.7 70.2 78.7 15.1c6.3 1.2 11.4 5.7 13.4 11.8 2 6.1 0.5 12.7-3.9 17.4l-55 58.6 10 79.6c0.8 6.3-1.9 12.6-7.1 16.4-3.1 2.1-6.7 3.2-10.3 3.2zM740.5 623.5l38.7 41.3c3.6 3.8 5.2 9 4.6 14.1l-7 56.2 51.3-24.1c4.7-2.2 10.2-2.2 14.9 0l51.2 24-7-56.2c-0.7-5.2 1-10.4 4.6-14.2l38.7-41.3-55.6-10.7c-5.1-1-9.5-4.2-12-8.7l-27.3-49.6-27.4 49.7c-2.5 4.6-6.9 7.8-12 8.7l-55.7 10.8z" fill="#078FBC" p-id="16068"></path><path d="M634.6 453.6c34.3 0 62.2 27.8 62.2 62.1S669 578 634.7 578s-62.2-27.8-62.2-62.1c0-34.4 27.8-62.2 62.1-62.3z" fill="#61FFCB" p-id="16069"></path><path d="M634.7 595.5c-43.9 0-79.7-35.7-79.7-79.7 0-43.9 35.8-79.7 79.6-79.7h0.1c21.3 0 41.3 8.3 56.3 23.3 15.1 15 23.4 35.1 23.4 56.3 0 21.3-8.3 41.3-23.3 56.4-15.1 15.1-35.1 23.4-56.4 23.4z m0-124.4c-24.6 0-44.6 20.1-44.7 44.7 0 24.6 20.1 44.6 44.7 44.6 11.9 0 23.1-4.7 31.6-13.1 8.4-8.4 13.1-19.7 13.1-31.6 0-11.9-4.7-23.2-13.1-31.6-8.5-8.3-19.7-13-31.6-13z" fill="#078FBC" p-id="16070"></path><path d="M227.3 623.4m-103.7 0a103.7 103.7 0 1 0 207.4 0 103.7 103.7 0 1 0-207.4 0Z" fill="#FF9DB0" p-id="16071"></path><path d="M227.3 744.6c-66.8 0-121.2-54.4-121.2-121.2s54.4-121.2 121.2-121.2 121.2 54.4 121.2 121.2-54.4 121.2-121.2 121.2z m0-207.3c-47.5 0-86.1 38.6-86.1 86.1 0 47.5 38.6 86.1 86.1 86.1 47.5 0 86.1-38.6 86.1-86.1 0.1-47.5-38.6-86.1-86.1-86.1z" fill="#078FBC" p-id="16072"></path><path d="M103.4 702c-29.9 0-53.3-7.1-60.2-26.4-9.1-25.8 15.8-55.1 73.8-87.1 8.5-4.7 19.1-1.6 23.8 6.8 4.7 8.5 1.6 19.1-6.8 23.8-40.3 22.3-54 38.5-56.9 44.6 13.3 7.4 73.4 5.5 159.4-24.9s133.9-66.8 139.6-80.9c-5.9-2.8-25.7-6.7-68.8 0.5-9.6 1.6-18.6-4.8-20.2-14.3-1.6-9.5 4.8-18.6 14.3-20.2 63-10.7 99.5-3.3 108.4 21.9 2.1 5.8 3.4 15.2-2.3 27-18 37.9-97.2 77-159.4 99-40.7 14.5-100 30.2-144.7 30.2z" fill="#078FBC" p-id="16073"></path><path d="M550.4 831.2c47.2 23 103.4 16.9 144.6-15.7-0.2 75.6-61.6 136.6-137.2 136.4-75.6-0.2-136.6-61.6-136.4-137.2 0.1-41.9 19.4-81.3 52.3-107.2-0.3 52.6 29.5 100.6 76.7 123.7z" fill="#FFE3C1" p-id="16074"></path><path d="M558.2 969.5h-0.4c-85.1-0.2-154.1-69.7-153.9-154.8 0.1-47.5 21.6-91.6 59-120.9 5.3-4.2 12.5-4.9 18.5-2s9.9 9.1 9.8 15.8c-0.3 45.5 26 87.8 66.9 107.8 40.9 20 90.4 14.6 126-13.7 5.3-4.2 12.5-5 18.5-2 6.1 2.9 9.9 9.1 9.9 15.8-0.1 41.2-16.3 79.9-45.5 109-29.1 29-67.7 45-108.8 45zM460.9 746c-14.1 19.8-21.9 43.7-22 68.8-0.1 31.9 12.2 61.9 34.7 84.5 22.5 22.6 52.4 35.1 84.3 35.2h0.3c31.7 0 61.6-12.3 84.1-34.7 14.3-14.3 24.6-31.5 30.2-50.4-40.9 18-88.7 17.7-129.8-2.4-41.1-20.2-70.7-57.7-81.8-101z" fill="#078FBC" p-id="16075"></path></svg>